<svg width="43" height="64" viewBox="0 0 43 64" fill="none" xmlns="http://www.w3.org/2000/svg">
<g clip-path="url(#clip0_1409_703)">
<path d="M21.6494 32C21.6494 29.1711 22.7732 26.458 24.7736 24.4576C26.774 22.4572 29.4871 21.3334 32.3161 21.3334C35.1451 21.3334 37.8582 22.4572 39.8586 24.4576C41.8589 26.458 42.9827 29.1711 42.9827 32C42.9827 34.829 41.8589 37.5421 39.8586 39.5425C37.8582 41.5429 35.1451 42.6667 32.3161 42.6667C29.4871 42.6667 26.774 41.5429 24.7736 39.5425C22.7732 37.5421 21.6494 34.829 21.6494 32Z" fill="#1ABCFE"/>
<path d="M0.316162 53.3333C0.316162 50.5043 1.43997 47.7912 3.44036 45.7908C5.44074 43.7904 8.15385 42.6666 10.9828 42.6666H21.6495V53.3333C21.6495 56.1623 20.5257 58.8754 18.5253 60.8758C16.5249 62.8762 13.8118 64 10.9828 64C8.15385 64 5.44074 62.8762 3.44036 60.8758C1.43997 58.8754 0.316162 56.1623 0.316162 53.3333Z" fill="#0ACF83"/>
<path d="M21.6494 0V21.3333H32.3161C35.1451 21.3333 37.8582 20.2095 39.8586 18.2091C41.8589 16.2088 42.9827 13.4956 42.9827 10.6667C42.9827 7.83769 41.8589 5.12458 39.8586 3.12419C37.8582 1.12381 35.1451 0 32.3161 0L21.6494 0Z" fill="#FF7262"/>
<path d="M0.316162 10.6667C0.316162 13.4956 1.43997 16.2088 3.44036 18.2091C5.44074 20.2095 8.15385 21.3333 10.9828 21.3333H21.6495V0H10.9828C8.15385 0 5.44074 1.12381 3.44036 3.12419C1.43997 5.12458 0.316162 7.83769 0.316162 10.6667Z" fill="#F24E1E"/>
<path d="M0.316162 32C0.316162 34.829 1.43997 37.5421 3.44036 39.5425C5.44074 41.5429 8.15385 42.6667 10.9828 42.6667H21.6495V21.3334H10.9828C8.15385 21.3334 5.44074 22.4572 3.44036 24.4576C1.43997 26.458 0.316162 29.1711 0.316162 32Z" fill="#A259FF"/>
</g>
<defs>
<clipPath id="clip0_1409_703">
<rect width="42.6667" height="64" fill="white" transform="translate(0.316162)"/>
</clipPath>
</defs>
</svg>
