<svg width="65" height="64" viewBox="0 0 65 64" fill="none" xmlns="http://www.w3.org/2000/svg">
<g clip-path="url(#clip0_316_285)">
<mask id="mask0_316_285" style="mask-type:alpha" maskUnits="userSpaceOnUse" x="0" y="0" width="65" height="64">
<path d="M32.8701 64C50.5432 64 64.8701 49.6731 64.8701 32C64.8701 14.3269 50.5432 0 32.8701 0C15.197 0 0.870117 14.3269 0.870117 32C0.870117 49.6731 15.197 64 32.8701 64Z" fill="black"/>
</mask>
<g mask="url(#mask0_316_285)">
<path d="M32.8701 62.9333C49.9541 62.9333 63.8034 49.084 63.8034 32C63.8034 14.916 49.9541 1.06665 32.8701 1.06665C15.7861 1.06665 1.93677 14.916 1.93677 32C1.93677 49.084 15.7861 62.9333 32.8701 62.9333Z" fill="black" stroke="white" stroke-width="6"/>
<path d="M54.0285 56.0071L25.4539 19.2H20.0701V44.7893H24.3771V24.6697L50.6475 58.6115C51.8329 57.8183 52.9622 56.9475 54.0285 56.0071Z" fill="url(#paint0_linear_316_285)"/>
<path d="M46.0257 19.2H41.759V44.8H46.0257V19.2Z" fill="url(#paint1_linear_316_285)"/>
</g>
</g>
<defs>
<linearGradient id="paint0_linear_316_285" x1="39.6256" y1="41.4222" x2="52.2478" y2="57.0666" gradientUnits="userSpaceOnUse">
<stop stop-color="white"/>
<stop offset="1" stop-color="white" stop-opacity="0"/>
</linearGradient>
<linearGradient id="paint1_linear_316_285" x1="43.8924" y1="19.2" x2="43.8209" y2="38" gradientUnits="userSpaceOnUse">
<stop stop-color="white"/>
<stop offset="1" stop-color="white" stop-opacity="0"/>
</linearGradient>
<clipPath id="clip0_316_285">
<rect width="64" height="64" fill="white" transform="translate(0.870117)"/>
</clipPath>
</defs>
</svg>
