<svg width="57" height="64" viewBox="0 0 57 64" fill="none" xmlns="http://www.w3.org/2000/svg">
<g clip-path="url(#clip0_316_295)">
<path d="M28.8202 64C27.9622 64 27.1614 63.7668 26.4179 63.3586L18.8105 58.7517C17.6666 58.1102 18.2385 57.877 18.5818 57.7603C20.1261 57.2355 20.4121 57.1189 22.0136 56.1859C22.1852 56.0692 22.414 56.1275 22.5856 56.2442L28.4198 59.8014C28.6486 59.918 28.9346 59.918 29.1062 59.8014L51.9281 46.3307C52.1569 46.214 52.2713 45.9808 52.2713 45.6892V18.806C52.2713 18.5145 52.1569 18.2812 51.9281 18.1646L29.1062 4.75223C28.8774 4.63561 28.5913 4.63561 28.4198 4.75223L5.59783 18.1646C5.36905 18.2812 5.25465 18.5728 5.25465 18.806V45.6892C5.25465 45.9224 5.36905 46.214 5.59783 46.3307L11.8324 50.0045C15.2071 51.7539 17.3234 49.7129 17.3234 47.6719V21.1386C17.3234 20.7888 17.6094 20.4389 18.0098 20.4389H20.9269C21.2701 20.4389 21.6132 20.7305 21.6132 21.1386V47.6719C21.6132 52.2788 19.1537 54.9613 14.8639 54.9613C13.5483 54.9613 12.5188 54.9613 9.60166 53.5034L3.59591 50.0045C2.10877 49.1297 1.1936 47.4969 1.1936 45.7475V18.8644C1.1936 17.115 2.10877 15.4822 3.59591 14.6074L26.4179 1.13672C27.8478 0.320313 29.7925 0.320313 31.2225 1.13672L54.0444 14.6074C55.5316 15.4822 56.4467 17.115 56.4467 18.8644V45.7475C56.4467 47.4969 55.5316 49.1297 54.0444 50.0045L31.2225 63.4752C30.5361 63.7668 29.6782 64 28.8202 64Z" fill="#5FA04E"/>
<path d="M35.9127 45.5142C25.9031 45.5142 23.844 40.849 23.844 36.8836C23.844 36.5337 24.13 36.1839 24.5303 36.1839H27.5046C27.8478 36.1839 28.1338 36.4171 28.1338 36.767C28.5914 39.8576 29.907 41.3738 35.9699 41.3738C40.7745 41.3738 42.8337 40.2658 42.8337 37.6417C42.8337 36.1255 42.2617 35.0175 34.7687 34.2594C28.5342 33.6179 24.6448 32.2184 24.6448 27.145C24.6448 22.4215 28.5342 19.6224 35.0548 19.6224C42.3761 19.6224 45.9795 22.1883 46.4371 27.7865C46.4371 27.9615 46.3799 28.1364 46.2655 28.3114C46.1512 28.4279 45.9795 28.5446 45.8079 28.5446H42.7765C42.4904 28.5446 42.2045 28.3114 42.1473 28.0197C41.4609 24.8124 39.6878 23.7627 34.9976 23.7627C29.7353 23.7627 29.1062 25.6289 29.1062 27.0284C29.1062 28.7195 29.8498 29.2444 36.9423 30.1774C43.9776 31.1104 47.2951 32.4517 47.2951 37.4668C47.2951 42.5984 43.1196 45.5142 35.9127 45.5142Z" fill="#5FA04E"/>
</g>
<defs>
<clipPath id="clip0_316_295">
<rect width="56.32" height="64" fill="white" transform="translate(0.560791)"/>
</clipPath>
</defs>
</svg>
