<svg width="29" height="30" viewBox="0 0 29 30" fill="none" xmlns="http://www.w3.org/2000/svg">
<path d="M27.8334 21.56V25.56C27.8349 25.9313 27.7589 26.2989 27.6101 26.6391C27.4613 26.9793 27.2431 27.2848 26.9695 27.5358C26.6959 27.7868 26.3728 27.9779 26.0211 28.0969C25.6693 28.2159 25.2966 28.2601 24.9267 28.2266C20.8239 27.7808 16.8827 26.3788 13.4201 24.1333C10.1985 22.0862 7.46719 19.3549 5.42007 16.1333C3.16671 12.6549 1.7644 8.69463 1.32674 4.5733C1.29342 4.20459 1.33724 3.83298 1.45541 3.48213C1.57357 3.13128 1.7635 2.80889 2.01309 2.53546C2.26269 2.26204 2.56648 2.04358 2.90513 1.894C3.24378 1.74441 3.60986 1.66698 3.98007 1.66663H7.98007C8.62715 1.66026 9.25446 1.8894 9.74509 2.31134C10.2357 2.73328 10.5562 3.31923 10.6467 3.95997C10.8156 5.24006 11.1287 6.49694 11.5801 7.70663C11.7595 8.18387 11.7983 8.70252 11.6919 9.20114C11.5856 9.69976 11.3386 10.1574 10.9801 10.52L9.28674 12.2133C11.1848 15.5514 13.9487 18.3152 17.2867 20.2133L18.9801 18.52C19.3426 18.1615 19.8003 17.9144 20.2989 17.8081C20.7975 17.7018 21.3162 17.7406 21.7934 17.92C23.0031 18.3714 24.26 18.6845 25.5401 18.8533C26.1878 18.9447 26.7793 19.2709 27.2021 19.77C27.625 20.269 27.8496 20.9061 27.8334 21.56Z" stroke="#D1D5DB" stroke-width="2" stroke-linecap="round" stroke-linejoin="round"/>
</svg>
