<svg width="65" height="64" viewBox="0 0 65 64" fill="none" xmlns="http://www.w3.org/2000/svg">
<g clip-path="url(#clip0_316_272)">
<path d="M61.3506 0H3.35059C1.69373 0 0.350586 1.34315 0.350586 3V61C0.350586 62.6569 1.69373 64 3.35059 64H61.3506C63.0074 64 64.3506 62.6569 64.3506 61V3C64.3506 1.34315 63.0074 0 61.3506 0Z" fill="#3178C6"/>
<path fill-rule="evenodd" clip-rule="evenodd" d="M37.4817 49.734V56.747C38.6179 57.331 39.9616 57.7695 41.5129 58.0615C43.0643 58.354 44.6993 58.5 46.4182 58.5C48.0933 58.5 49.6847 58.3395 51.1921 58.018C52.7001 57.6965 54.0216 57.167 55.1581 56.429C56.2941 55.691 57.1936 54.727 57.8566 53.536C58.5191 52.3455 58.8506 50.8735 58.8506 49.1203C58.8506 47.8493 58.6611 46.7353 58.2826 45.7783C57.9036 44.8214 57.3576 43.9704 56.6436 43.2252C55.9301 42.4801 55.0741 41.8117 54.0766 41.22C53.0786 40.6283 51.9536 40.0694 50.7006 39.5435C49.783 39.1636 48.96 38.7947 48.2317 38.4368C47.5033 38.0788 46.8843 37.7136 46.3745 37.341C45.8646 36.9684 45.4713 36.574 45.1946 36.1576C44.9178 35.7413 44.7794 35.27 44.7794 34.7441C44.7794 34.2619 44.9032 33.8273 45.1509 33.4402C45.3985 33.053 45.7481 32.7206 46.1997 32.443C46.6512 32.1655 47.2047 31.95 47.8602 31.7966C48.5157 31.6431 49.244 31.5664 50.0452 31.5664C50.6281 31.5664 51.2431 31.6103 51.8916 31.6979C52.5396 31.7856 53.1916 31.9207 53.8471 32.1034C54.5026 32.286 55.1396 32.5161 55.7591 32.7937C56.3781 33.0713 56.9496 33.3927 57.4741 33.7579V27.2054C56.4106 26.7963 55.2491 26.4931 53.9891 26.2959C52.7291 26.0986 51.2836 26 49.6519 26C47.9913 26 46.4182 26.1789 44.9324 26.5369C43.4466 26.8948 42.1393 27.4537 41.0104 28.2134C39.8815 28.9731 38.9893 29.941 38.3338 31.1171C37.6783 32.2932 37.3506 33.6995 37.3506 35.3358C37.3506 37.4251 37.9514 39.2074 39.1532 40.683C40.3549 42.1587 42.1793 43.4078 44.6265 44.4305C45.5879 44.825 46.4837 45.2122 47.314 45.592C48.1443 45.9719 48.8617 46.3664 49.4662 46.7755C50.0707 47.1846 50.5476 47.6302 50.8971 48.1123C51.2471 48.5944 51.4216 49.1423 51.4216 49.7559C51.4216 50.209 51.3126 50.629 51.0941 51.016C50.8756 51.403 50.5441 51.739 50.0998 52.024C49.6555 52.309 49.102 52.532 48.4392 52.6925C47.7765 52.853 47.0008 52.9335 46.1123 52.9335C44.5973 52.9335 43.097 52.667 41.6112 52.1335C40.1255 51.6005 38.749 50.8005 37.4817 49.734ZM25.7019 32.2772H34.8506V26.5H9.35059V32.2772H18.4545V58H25.7019V32.2772Z" fill="white"/>
</g>
<defs>
<clipPath id="clip0_316_272">
<rect width="64" height="64" fill="white" transform="translate(0.350586)"/>
</clipPath>
</defs>
</svg>
