<svg width="106" height="64" viewBox="0 0 106 64" fill="none" xmlns="http://www.w3.org/2000/svg">
<g clip-path="url(#clip0_1409_694)">
<mask id="mask0_1409_694" style="mask-type:luminance" maskUnits="userSpaceOnUse" x="0" y="0" width="106" height="63">
<path d="M0.571289 0H105.299V62.8364H0.571289V0Z" fill="white"/>
</mask>
<g mask="url(#mask0_1409_694)">
<path fill-rule="evenodd" clip-rule="evenodd" d="M52.9349 0C38.9713 0 30.244 6.98182 26.7531 20.9455C31.9895 13.9636 38.0986 11.3455 45.0804 13.0909C49.0639 14.0858 51.9109 16.9775 55.0624 20.1755C60.196 25.3867 66.1383 31.4182 79.1167 31.4182C93.0804 31.4182 101.808 24.4364 105.299 10.4727C100.062 17.4545 93.9531 20.0727 86.9713 18.3273C82.9878 17.3324 80.1407 14.4407 76.9892 11.2427C71.8557 6.03151 65.9133 0 52.9349 0ZM26.7531 31.4182C12.7895 31.4182 4.0622 38.4 0.571289 52.3636C5.80765 45.3818 11.9167 42.7636 18.8986 44.5091C22.8821 45.5059 25.7291 48.3956 28.8806 51.5937C34.0142 56.8048 39.9565 62.8364 52.9349 62.8364C66.8986 62.8364 75.6258 55.8545 79.1167 41.8909C73.8804 48.8727 67.7713 51.4909 60.7895 49.7455C56.806 48.7505 53.9589 45.8589 50.8074 42.6608C45.6738 37.4497 39.7315 31.4182 26.7531 31.4182Z" fill="#38BDF8"/>
</g>
</g>
<defs>
<clipPath id="clip0_1409_694">
<rect width="104.727" height="64" fill="white" transform="translate(0.571289)"/>
</clipPath>
</defs>
</svg>
