<svg width="71" height="64" viewBox="0 0 71 64" fill="none" xmlns="http://www.w3.org/2000/svg">
<g clip-path="url(#clip0_316_277)">
<path d="M35.6103 38.7725C39.2826 38.7725 42.2596 35.7404 42.2596 32C42.2596 28.2597 39.2826 25.2275 35.6103 25.2275C31.938 25.2275 28.9609 28.2597 28.9609 32C28.9609 35.7404 31.938 38.7725 35.6103 38.7725Z" fill="#087EA4"/>
<path d="M35.6103 47.238C53.972 47.238 68.857 40.4157 68.857 31.9999C68.857 23.5842 53.972 16.7618 35.6103 16.7618C17.2486 16.7618 2.36353 23.5842 2.36353 31.9999C2.36353 40.4157 17.2486 47.238 35.6103 47.238Z" stroke="#087EA4" stroke-width="3"/>
<path d="M22.6537 39.619C31.8345 55.8152 45.078 65.5336 52.2337 61.3257C59.3895 57.1178 57.7478 40.5771 48.567 24.3809C39.3861 8.18475 26.1427 -1.53366 18.987 2.67422C11.8312 6.88211 13.4729 23.4228 22.6537 39.619Z" stroke="#087EA4" stroke-width="3"/>
<path d="M22.6535 24.3808C13.4727 40.577 11.831 57.1177 18.9868 61.3256C26.1425 65.5335 39.386 55.8151 48.5668 39.6189C57.7476 23.4228 59.3893 6.88205 52.2335 2.67416C45.0778 -1.53372 31.8344 8.18469 22.6535 24.3808Z" stroke="#087EA4" stroke-width="3"/>
</g>
<defs>
<clipPath id="clip0_316_277">
<rect width="69.8182" height="64" fill="white" transform="translate(0.701172)"/>
</clipPath>
</defs>
</svg>
